<svg width="20" height="12" viewBox="0 0 20 12" fill="none" xmlns="http://www.w3.org/2000/svg">
<path d="M4.99998 5.16663C4.83516 5.16663 4.67405 5.2155 4.537 5.30707C4.39996 5.39864 4.29315 5.52878 4.23008 5.68106C4.16701 5.83333 4.1505 6.00088 4.18266 6.16253C4.21481 6.32419 4.29418 6.47267 4.41072 6.58921C4.52727 6.70576 4.67575 6.78513 4.8374 6.81728C4.99905 6.84943 5.16661 6.83293 5.31888 6.76986C5.47115 6.70679 5.6013 6.59998 5.69287 6.46293C5.78444 6.32589 5.83331 6.16478 5.83331 5.99996C5.83331 5.77895 5.74551 5.56698 5.58923 5.4107C5.43295 5.25442 5.22099 5.16663 4.99998 5.16663ZM15 5.16663C14.8352 5.16663 14.674 5.2155 14.537 5.30707C14.4 5.39864 14.2932 5.52878 14.2301 5.68106C14.167 5.83333 14.1505 6.00088 14.1827 6.16253C14.2148 6.32419 14.2942 6.47267 14.4107 6.58921C14.5273 6.70576 14.6758 6.78513 14.8374 6.81728C14.9991 6.84943 15.1666 6.83293 15.3189 6.76986C15.4712 6.70679 15.6013 6.59998 15.6929 6.46293C15.7844 6.32589 15.8333 6.16478 15.8333 5.99996C15.8333 5.77895 15.7455 5.56698 15.5892 5.4107C15.433 5.25442 15.221 5.16663 15 5.16663ZM16.6666 0.166626H3.33331C2.67027 0.166626 2.03439 0.430018 1.56555 0.898859C1.09671 1.3677 0.833313 2.00358 0.833313 2.66663V9.33329C0.833313 9.99633 1.09671 10.6322 1.56555 11.1011C2.03439 11.5699 2.67027 11.8333 3.33331 11.8333H16.6666C17.3297 11.8333 17.9656 11.5699 18.4344 11.1011C18.9033 10.6322 19.1666 9.99633 19.1666 9.33329V2.66663C19.1666 2.00358 18.9033 1.3677 18.4344 0.898859C17.9656 0.430018 17.3297 0.166626 16.6666 0.166626ZM17.5 9.33329C17.5 9.55431 17.4122 9.76627 17.2559 9.92255C17.0996 10.0788 16.8877 10.1666 16.6666 10.1666H3.33331C3.1123 10.1666 2.90034 10.0788 2.74406 9.92255C2.58778 9.76627 2.49998 9.55431 2.49998 9.33329V2.66663C2.49998 2.44561 2.58778 2.23365 2.74406 2.07737C2.90034 1.92109 3.1123 1.83329 3.33331 1.83329H16.6666C16.8877 1.83329 17.0996 1.92109 17.2559 2.07737C17.4122 2.23365 17.5 2.44561 17.5 2.66663V9.33329ZM9.99998 3.49996C9.50553 3.49996 9.02218 3.64658 8.61105 3.92129C8.19993 4.19599 7.8795 4.58644 7.69028 5.04325C7.50106 5.50007 7.45155 6.00273 7.54802 6.48768C7.64448 6.97264 7.88258 7.4181 8.23221 7.76773C8.58184 8.11736 9.0273 8.35546 9.51225 8.45192C9.99721 8.54839 10.4999 8.49888 10.9567 8.30966C11.4135 8.12044 11.8039 7.80001 12.0787 7.38888C12.3534 6.97776 12.5 6.49441 12.5 5.99996C12.5 5.33692 12.2366 4.70103 11.7677 4.23219C11.2989 3.76335 10.663 3.49996 9.99998 3.49996ZM9.99998 6.83329C9.83516 6.83329 9.67404 6.78442 9.537 6.69285C9.39996 6.60128 9.29315 6.47113 9.23008 6.31886C9.16701 6.16659 9.1505 5.99903 9.18266 5.83738C9.21481 5.67573 9.29418 5.52725 9.41072 5.4107C9.52727 5.29416 9.67575 5.21479 9.8374 5.18264C9.99905 5.15048 10.1666 5.16699 10.3189 5.23006C10.4712 5.29313 10.6013 5.39994 10.6929 5.53698C10.7844 5.67402 10.8333 5.83514 10.8333 5.99996C10.8333 6.22097 10.7455 6.43293 10.5892 6.58921C10.433 6.74549 10.221 6.83329 9.99998 6.83329Z" fill="#71839B"/>
</svg>
