<svg width="15" height="18" viewBox="0 0 15 18" fill="none" xmlns="http://www.w3.org/2000/svg">
<path d="M14.075 5.26667C14.0703 5.2447 14.0703 5.22198 14.075 5.20001C14.071 5.18077 14.071 5.16091 14.075 5.14167V5.06667L14.025 4.94167C14.0047 4.90756 13.9794 4.87667 13.95 4.85001L13.875 4.78334H13.8333L10.55 2.70834L7.45 0.791673C7.37827 0.734781 7.29621 0.692332 7.20833 0.666673H7.14166C7.06718 0.654241 6.99115 0.654241 6.91666 0.666673H6.83333C6.73653 0.688083 6.64372 0.724645 6.55833 0.775006L0.333329 4.65001L0.258329 4.70834L0.183329 4.77501L0.0999958 4.83334L0.0583292 4.88334L0.00832899 5.00834V5.08334V5.13334C0.000234736 5.1886 0.000234736 5.24475 0.00832899 5.30001V12.575C0.0080456 12.7166 0.0438591 12.856 0.112388 12.9799C0.180918 13.1039 0.279902 13.2083 0.399996 13.2833L6.65 17.15L6.775 17.2H6.84166C6.98265 17.2447 7.13401 17.2447 7.275 17.2H7.34166L7.46666 17.15L13.6667 13.3417C13.7868 13.2666 13.8857 13.1622 13.9543 13.0383C14.0228 12.9143 14.0586 12.775 14.0583 12.6333V5.35834C14.0583 5.35834 14.075 5.30001 14.075 5.26667ZM7 2.47501L8.48333 3.39167L3.825 6.27501L2.33333 5.35834L7 2.47501ZM6.16666 14.975L1.58333 12.175V6.85001L6.16666 9.68334V14.975ZM7 8.21667L5.40833 7.25834L10.0667 4.36667L11.6667 5.35834L7 8.21667ZM12.4167 12.15L7.83333 15V9.68334L12.4167 6.85001V12.15Z" fill="#71839B"/>
</svg>
